<svg width="44" height="42" viewBox="0 0 44 42" fill="none" xmlns="http://www.w3.org/2000/svg">
<path fill-rule="evenodd" clip-rule="evenodd" d="M41.3196 15.931C42.0365 15.931 42.6998 16.288 43.0944 16.8869C43.4891 17.4858 43.5557 18.236 43.274 18.8949L38.3347 32.5804C38.0595 33.6348 37.1724 34.4443 36.0906 34.6811L36.7314 41.2759H33.4518L32.0035 34.7586H11.4409L9.99264 41.2759H6.71302L7.35388 34.6811C6.2713 34.4429 5.38205 33.6246 5.09095 32.5196L0.153779 18.2323C-0.111979 17.5821 -0.0316002 16.8051 0.381883 16.1896C0.796089 15.574 1.48547 15.2069 2.22699 15.2069H4.36102C4.74119 6.75766 11.732 0 20.274 0H23.1705C31.955 0 39.1015 7.14652 39.1015 15.931H41.3196ZM23.1705 1.44824H20.274C12.5308 1.44824 6.18733 7.55635 5.80933 15.2061H6.03019C6.4864 15.2061 7.16781 15.3893 7.82026 16.2605L7.91295 16.3843L9.61033 23.9139C10.543 22.5779 12.0883 21.7234 13.7575 21.7234H29.6885C31.4568 21.7234 33.0514 22.6539 33.9624 24.0978C33.9678 24.0794 33.9742 24.0615 33.9807 24.0436L33.9807 24.0435L33.9807 24.0435L33.9807 24.0435C33.9897 24.0184 33.9988 23.9933 34.0051 23.9668L35.4367 17.8891C35.4729 17.75 35.5214 17.6168 35.5779 17.4886C35.5898 17.462 35.6038 17.4369 35.6177 17.4117L35.6273 17.3944C35.6322 17.3856 35.637 17.3767 35.6416 17.3677C35.6836 17.2844 35.7256 17.2019 35.7756 17.1244C35.7953 17.0937 35.8172 17.0652 35.839 17.0368L35.839 17.0368L35.839 17.0367C35.8501 17.0223 35.8612 17.0079 35.8719 16.9933L35.8746 16.9897L35.8746 16.9896L35.8746 16.9896L35.8747 16.9896L35.8747 16.9896L35.8747 16.9895L35.8748 16.9894C35.9231 16.9241 35.9707 16.8596 36.0247 16.8C36.0542 16.7672 36.0853 16.7369 36.1166 16.7066L36.1167 16.7065L36.1449 16.679C36.2014 16.624 36.2579 16.5704 36.3187 16.5204C36.3581 16.488 36.3992 16.4584 36.4405 16.4286L36.4577 16.4162C36.5207 16.3713 36.5845 16.3293 36.6511 16.2902C36.7018 16.2605 36.7525 16.233 36.8053 16.2069C36.8741 16.1729 36.9444 16.1417 37.0168 16.1135L37.0264 16.1098C37.0781 16.09 37.1294 16.0705 37.1826 16.0541C37.2579 16.0309 37.3347 16.0121 37.4122 15.9954C37.4686 15.9831 37.5251 15.9708 37.583 15.9621C37.5934 15.9605 37.6037 15.9582 37.6141 15.9558C37.627 15.9529 37.64 15.95 37.6533 15.9484V15.931C37.6533 7.94521 31.1563 1.44824 23.1705 1.44824ZM11.7784 26.0226C11.7726 26.0215 11.7671 26.0199 11.7617 26.0182C11.7563 26.0166 11.7508 26.015 11.745 26.0139C11.2635 25.9168 10.8145 25.6916 10.4474 25.3542C11.018 24.0522 12.3258 23.1724 13.756 23.1724H29.687C31.1802 23.1724 32.509 24.0985 33.0506 25.4693C32.5698 25.8538 31.968 26.0689 31.3489 26.0689H12.2758C12.1078 26.0689 11.9413 26.053 11.7784 26.0226ZM8.30902 39.8276H8.83112L9.95788 34.7587H8.80216L8.30902 39.8276ZM34.6133 39.8276L33.4866 34.7587H34.6423L35.1354 39.8276H34.6133ZM36.953 32.1503L41.9271 18.3641C42.0336 18.1114 42.0133 17.8775 41.8866 17.6856C41.7591 17.4923 41.5528 17.3815 41.321 17.3815H39.103H37.9589C37.4346 17.3815 36.9755 17.7348 36.8422 18.2417L35.415 24.3013C35.2781 24.8814 35.016 25.3984 34.6771 25.8495L34.6858 25.8829L34.4881 26.0965C34.4403 26.1511 34.3887 26.2011 34.3368 26.2513C34.3179 26.2696 34.299 26.2879 34.2802 26.3065C34.2078 26.3789 34.1347 26.4499 34.0572 26.5157C33.9783 26.5831 33.8979 26.6461 33.8139 26.7076C33.7328 26.767 33.6481 26.8213 33.5626 26.8749C33.4417 26.9502 33.3193 27.019 33.1911 27.082C33.0927 27.1305 32.9927 27.1762 32.8906 27.2167L32.8584 27.2295C32.7925 27.2557 32.7268 27.2819 32.6589 27.3043C32.4873 27.3615 32.3128 27.4064 32.1346 27.4405C32.0803 27.4506 32.026 27.4586 31.971 27.4665C31.766 27.4984 31.5597 27.5194 31.3504 27.5194H12.2773C12.0659 27.5194 11.8588 27.4977 11.6531 27.4665C11.5901 27.4571 11.5278 27.447 11.4655 27.4347C11.3019 27.4021 11.1404 27.3608 10.9825 27.3087C10.8703 27.2725 10.7631 27.2276 10.6552 27.182L10.6509 27.1801L10.6508 27.1801L10.6508 27.18C10.5763 27.1481 10.5032 27.1168 10.4308 27.0806C9.87317 26.8068 9.38872 26.4129 9.00493 25.9241L8.80724 25.683L8.81158 25.6678C8.53279 25.2492 8.31917 24.7793 8.20258 24.2615L6.56965 17.0165C6.37413 16.7855 6.18079 16.6559 6.02944 16.6559H4.34293H2.22772C1.96558 16.6559 1.73096 16.7804 1.58468 16.9984C1.43768 17.2156 1.41017 17.4807 1.50937 17.7233L6.47551 32.0989C6.67103 32.8339 7.29017 33.3111 7.9962 33.3111H11.7624H31.6813H35.4475C36.1536 33.3111 36.7727 32.8339 36.953 32.1503ZM16.6767 11.0806C16.9204 10.8369 17.3154 10.8369 17.5591 11.0806C17.8027 11.3242 17.8027 11.7193 17.5591 11.9629L16.3826 13.1394L15.5002 12.2571L16.6767 11.0806ZM14.6179 13.1394L15.5002 12.2571L14.3238 11.0806C14.0801 10.8369 13.6851 10.8369 13.4414 11.0806C13.1978 11.3242 13.1978 11.7193 13.4414 11.9629L14.6179 13.1394ZM15.5002 14.0218L16.3826 13.1394L17.5591 14.3159C17.8027 14.5595 17.8027 14.9546 17.5591 15.1982C17.3154 15.4419 16.9204 15.4419 16.6767 15.1982L15.5002 14.0218ZM15.5002 14.0218L14.6179 13.1394L13.4414 14.3159C13.1978 14.5595 13.1978 14.9546 13.4414 15.1982C13.6851 15.4419 14.0801 15.4419 14.3238 15.1982L15.5002 14.0218ZM29.5591 11.0806C29.3154 10.8369 28.9204 10.8369 28.6767 11.0806L27.5002 12.2571L26.3238 11.0806C26.0801 10.8369 25.6851 10.8369 25.4414 11.0806C25.1978 11.3242 25.1978 11.7193 25.4414 11.9629L26.6179 13.1394L25.4414 14.3159C25.1978 14.5595 25.1978 14.9546 25.4414 15.1982C25.6851 15.4419 26.0801 15.4419 26.3238 15.1982L27.5002 14.0218L28.6767 15.1982C28.9204 15.4419 29.3154 15.4419 29.5591 15.1982C29.8027 14.9546 29.8027 14.5595 29.5591 14.3159L28.3826 13.1394L29.5591 11.9629C29.8027 11.7193 29.8027 11.3242 29.5591 11.0806ZM28.3826 13.1394L27.5002 12.2571L26.6179 13.1394L27.5002 14.0218L28.3826 13.1394Z" fill="#D6C7A7"/>
</svg>
