<svg width="38" height="40" viewBox="0 0 38 40" fill="none" xmlns="http://www.w3.org/2000/svg">
<path fill-rule="evenodd" clip-rule="evenodd" d="M11.7287 25.549L14.9861 26.9062C16.1973 27.4109 16.98 28.5848 16.9799 29.897V39.303C16.9799 39.6427 16.7045 39.9182 16.3647 39.9182C16.0249 39.9182 15.7495 39.6428 15.7495 39.303V29.897C15.7495 29.0829 15.2641 28.3548 14.5128 28.0418L8.25329 25.4338C8.12778 25.3814 8.02937 25.292 7.96404 25.1839L4.58291 21.7516C4.3165 21.4812 3.86719 21.4772 3.59685 21.7442C3.32651 22.0112 3.32258 22.4593 3.58949 22.7303L7.07205 26.2657C7.29105 26.488 7.30685 26.8519 7.10611 27.0915C6.87597 27.3662 6.44737 27.3848 6.19553 27.1291L2.71297 23.5939C2.35167 23.2271 2.15477 22.7415 2.15862 22.2266C2.16206 21.7653 2.32678 21.3301 2.62488 20.9846V16.9913C2.62488 16.604 2.3276 16.2749 1.96213 16.2578C1.56923 16.2393 1.23036 16.5602 1.23036 16.9542V24.0235L4.9655 29.6262L10.7085 32.1786C10.9307 32.2774 11.0739 32.4977 11.0739 32.7409V39.3032C11.0739 39.6429 10.7985 39.9184 10.4587 39.9184C10.119 39.9184 9.84356 39.6429 9.84356 39.3032V33.1406L4.30275 30.678C4.19632 30.6307 4.10536 30.5541 4.04076 30.4571L0.103322 24.551C0.0359415 24.45 0 24.3312 0 24.2098V16.9541C0 16.4298 0.217614 15.9213 0.59717 15.5592C0.982211 15.1919 1.48801 15.0029 2.02009 15.0286C2.23304 15.0385 2.43625 15.0839 2.62496 15.1581V14.3661C2.62496 13.3032 3.48968 12.4385 4.55262 12.4385C5.61556 12.4385 6.48028 13.3032 6.48028 14.3661V15.1944C6.69667 15.1102 6.93164 15.0634 7.1775 15.0634C8.24043 15.0634 9.10516 15.9282 9.10516 16.9911V18.4756C9.32154 18.3913 9.55651 18.3446 9.80237 18.3446C10.8653 18.3446 11.73 19.2093 11.73 20.2723V25.5222C11.73 25.5258 11.7299 25.5293 11.7297 25.5329C11.7296 25.5351 11.7294 25.5374 11.7293 25.5397L11.7287 25.549ZM5.24978 20.7038L5.24986 20.7039H5.24978V20.7038ZM5.24978 20.7038C4.92067 20.4537 4.52158 20.3166 4.1008 20.3135C4.01811 20.3128 3.93624 20.3179 3.85535 20.3275V14.3663C3.85535 13.9818 4.1681 13.6691 4.55256 13.6691C4.93703 13.6691 5.24978 13.9818 5.24978 14.3663V20.7038ZM7.87484 23.34L7.87475 23.3399V16.9912C7.87475 16.6067 7.56201 16.2939 7.17754 16.2939C6.79307 16.2939 6.48032 16.6067 6.48032 16.9911V21.8718C6.48032 21.8887 6.47909 21.9053 6.47778 21.9218L7.87475 23.3399V23.34H7.87484ZM10.4997 25.0368L10.4997 25.0369H10.4997V25.0368ZM10.4997 25.0368V20.2723C10.4997 19.8878 10.1869 19.5751 9.80244 19.5751C9.41797 19.5751 9.10522 19.8878 9.10522 20.2723V24.4558L10.4997 25.0368Z" fill="#D6C7A7"/>
<path fill-rule="evenodd" clip-rule="evenodd" d="M35.9599 15.0286C36.4919 15.0029 36.9979 15.1919 37.3828 15.5592C37.7623 15.9212 37.98 16.4296 37.9799 16.9539V24.2096C37.9799 24.331 37.9439 24.4498 37.8765 24.5509L33.9391 30.457C33.8745 30.5539 33.7836 30.6305 33.6771 30.6779L28.1364 33.1405V39.303C28.1364 39.6428 27.861 39.9183 27.5212 39.9183C27.1815 39.9183 26.906 39.6428 26.906 39.303V32.7407C26.906 32.4976 27.0493 32.2772 27.2714 32.1785L33.0145 29.626L36.7496 24.0233V16.9539C36.7496 16.56 36.4107 16.2391 36.0178 16.2575C35.6524 16.2747 35.3551 16.6038 35.3551 16.991V20.9844C35.6532 21.3299 35.8179 21.7649 35.8213 22.2264C35.8252 22.7412 35.6284 23.2267 35.267 23.5936L31.7844 27.1289C31.5327 27.3846 31.104 27.3658 30.8738 27.0912C30.6731 26.8518 30.6888 26.4878 30.9079 26.2655L34.3905 22.7302C34.6574 22.4592 34.6534 22.0111 34.3831 21.7441C34.1127 21.4772 33.6634 21.4812 33.397 21.7515L30.0159 25.1838C29.9507 25.292 29.8522 25.3814 29.7267 25.4337L23.4672 28.0418C22.7159 28.3548 22.2304 29.083 22.2304 29.8969V39.3028C22.2304 39.6426 21.955 39.9181 21.6153 39.9181C21.2755 39.9181 21 39.6426 21 39.3028V29.8968C21 28.5847 21.7827 27.4106 22.9939 26.9061L26.2512 25.5489L26.2506 25.5382C26.2503 25.5328 26.2499 25.5275 26.2499 25.5221V20.2722C26.2499 19.2092 27.1146 18.3445 28.1776 18.3445C28.4234 18.3445 28.6584 18.3913 28.8748 18.4755V16.991C28.8748 15.9281 29.7395 15.0634 30.8025 15.0634C31.0482 15.0634 31.2833 15.1101 31.4997 15.1943V14.3661C31.4997 13.3032 32.3644 12.4385 33.4273 12.4385C34.4903 12.4385 35.355 13.3032 35.355 14.3661V15.1581C35.5437 15.0839 35.7469 15.0385 35.9599 15.0286ZM27.4801 25.0367L28.8746 24.4556H28.8745V20.2722C28.8745 19.8877 28.5618 19.575 28.1773 19.575C27.7929 19.575 27.4801 19.8877 27.4801 20.2722V25.0367ZM30.1051 23.3398V16.991C30.1051 16.6066 30.4179 16.2938 30.8023 16.2938C31.1868 16.2938 31.4995 16.6065 31.4995 16.991V21.8717C31.4995 21.8885 31.5007 21.9051 31.5021 21.9217L30.1051 23.3398ZM34.1245 20.3272C34.1246 20.3273 34.1246 20.3273 34.1246 20.3273H34.1245V20.3272ZM34.1245 20.3272V14.366C34.1245 13.9816 33.8118 13.6688 33.4273 13.6688C33.0429 13.6688 32.7301 13.9816 32.7301 14.366V20.7036C33.0591 20.4535 33.4583 20.3164 33.8792 20.3133C33.9618 20.3126 34.0437 20.3177 34.1245 20.3272Z" fill="#D6C7A7"/>
<path fill-rule="evenodd" clip-rule="evenodd" d="M27.3576 0.836488C28.5938 1.66374 29.4712 3.01259 29.8282 4.63448C30.1954 6.3026 29.9557 8.08928 29.1531 9.66535C27.5593 12.7951 24.9288 14.8868 23.0027 16.0902C20.9222 17.3901 19.2311 17.9508 19.1601 17.974C19.0542 18.0087 18.9379 18.0087 18.832 17.974C18.761 17.9508 17.0699 17.3901 14.9895 16.0902C13.0633 14.8867 10.4328 12.7951 8.83907 9.66535C8.03645 8.08934 7.79676 6.30267 8.16396 4.63448C8.52095 3.01259 9.39834 1.66374 10.6346 0.836488C11.8092 0.0503852 13.1966 -0.187743 14.647 0.147928C16.1143 0.487463 17.5755 1.39022 18.9961 2.8337C20.4167 1.39022 21.8778 0.487463 23.3452 0.147928C24.7955 -0.187743 26.183 0.0505208 27.3576 0.836488ZM22.4833 15.2583C24.2971 14.1205 26.7715 12.1504 28.2597 9.22598C28.9597 7.85056 29.1696 6.29526 28.8509 4.84644C28.5535 3.49464 27.8069 2.33356 26.8024 1.66093C25.8713 1.03746 24.764 0.850353 23.6003 1.11977C22.2044 1.44298 20.7854 2.38319 19.3831 3.91412C19.1794 4.13656 18.8128 4.13656 18.609 3.91412C17.2067 2.38319 15.7878 1.44298 14.3918 1.11977C14.0462 1.03977 13.7055 1.00001 13.373 1.00001C12.5859 1.00001 11.8443 1.22272 11.1898 1.66099C10.1853 2.33369 9.4386 3.49478 9.14126 4.8465C8.82257 6.29526 9.03253 7.85056 9.73242 9.22598C12.3406 14.3514 17.9629 16.6194 18.9962 17C19.4625 16.8287 20.8619 16.2754 22.4833 15.2583Z" fill="#D6C7A7"/>
</svg>
