<svg width="215" height="35" viewBox="0 0 215 35" fill="none" xmlns="http://www.w3.org/2000/svg">
<path d="M0.539062 31.5401C0.629062 31.2101 0.989062 30.5801 1.61906 29.6501C2.24906 28.6901 3.04406 27.5801 4.00406 26.3201C4.96406 25.0301 6.02906 23.6351 7.19906 22.1351C8.36906 20.6351 9.52406 19.1801 10.6641 17.7701C11.8041 16.3301 12.8691 14.9951 13.8591 13.7651C14.8791 12.5351 15.7041 11.5451 16.3341 10.7951C16.9641 10.5851 17.4591 10.4351 17.8191 10.3451C18.1791 10.2251 18.4641 10.1201 18.6741 10.0301C18.8541 10.0901 18.8841 10.1801 18.7641 10.3001C18.4041 10.5401 18.1791 10.8851 18.0891 11.3351C17.9691 12.0251 17.8491 12.8501 17.7291 13.8101C17.6091 14.7701 17.4891 15.7901 17.3691 16.8701C17.2791 17.9501 17.1891 19.0601 17.0991 20.2001C17.0091 21.3401 16.9341 22.4201 16.8741 23.4401C16.8141 24.4601 16.7691 25.4051 16.7391 26.2751C16.7091 27.1151 16.6941 27.7901 16.6941 28.3001C16.6941 28.6001 16.7091 28.8101 16.7391 28.9301C16.7991 29.0201 16.8591 29.0651 16.9191 29.0651C17.0091 29.0351 17.0991 28.9751 17.1891 28.8851C17.2791 28.7651 17.3691 28.6451 17.4591 28.5251C17.7891 28.1051 18.3291 27.4451 19.0791 26.5451C19.8291 25.6151 20.6841 24.5801 21.6441 23.4401C22.6041 22.2701 23.6241 21.0551 24.7041 19.7951C25.7841 18.5351 26.8191 17.3501 27.8091 16.2401C28.7991 15.1001 29.6841 14.0951 30.4641 13.2251C31.2741 12.3251 31.8741 11.6951 32.2641 11.3351C32.7441 11.0951 33.3291 10.8701 34.0191 10.6601C34.7091 10.4501 35.2641 10.2101 35.6841 9.94008C35.7741 9.94008 35.8491 9.98508 35.9091 10.0751C35.9691 10.1351 35.9691 10.2101 35.9091 10.3001C35.3991 10.5101 35.0241 10.6901 34.7841 10.8401C34.5741 10.9901 34.3941 11.2751 34.2441 11.6951C33.8841 12.8351 33.5091 14.1701 33.1191 15.7001C32.7591 17.2001 32.4141 18.7451 32.0841 20.3351C31.7841 21.9251 31.5291 23.4851 31.3191 25.0151C31.1091 26.5151 31.0041 27.8351 31.0041 28.9751C31.0041 29.3951 31.0941 29.6951 31.2741 29.8751C31.4841 30.0251 31.7241 30.1001 31.9941 30.1001C32.2641 30.1001 32.5641 30.0701 32.8941 30.0101C33.2241 29.9501 33.5241 29.8601 33.7941 29.7401C33.8541 29.7401 33.8841 29.7851 33.8841 29.8751C33.9141 29.9351 33.8991 29.9951 33.8391 30.0551C33.5391 30.1451 33.1791 30.2501 32.7591 30.3701C32.3691 30.4901 31.9641 30.6101 31.5441 30.7301C31.1541 30.8501 30.7791 30.9551 30.4191 31.0451C30.0891 31.1651 29.8041 31.2551 29.5641 31.3151C29.2041 31.3151 28.9041 31.2401 28.6641 31.0901C28.4541 30.9701 28.3191 30.7301 28.2591 30.3701C28.2891 29.9501 28.3941 29.2601 28.5741 28.3001C28.7541 27.3401 28.9791 26.2601 29.2491 25.0601C29.5191 23.8601 29.8041 22.6001 30.1041 21.2801C30.4341 19.9601 30.7341 18.7451 31.0041 17.6351C31.2741 16.4951 31.4991 15.5351 31.6791 14.7551C31.8891 13.9751 32.0091 13.5101 32.0391 13.3601C32.1591 12.9101 32.1591 12.7001 32.0391 12.7301C31.9191 12.7301 31.7391 12.8351 31.4991 13.0451C30.9291 13.5551 30.2541 14.2151 29.4741 15.0251C28.7241 15.8051 27.9141 16.6751 27.0441 17.6351C26.2041 18.5951 25.3341 19.6151 24.4341 20.6951C23.5341 21.7751 22.6491 22.8551 21.7791 23.9351C20.9091 25.0151 20.0841 26.0801 19.3041 27.1301C18.5241 28.1501 17.8341 29.0951 17.2341 29.9651C17.1741 30.0851 17.0991 30.2351 17.0091 30.4151C16.9191 30.5651 16.8441 30.7451 16.7841 30.9551C16.2141 30.9851 15.7791 31.0601 15.4791 31.1801C15.2091 31.3301 14.9241 31.5401 14.6241 31.8101C14.4441 31.8701 14.3391 31.8401 14.3091 31.7201C14.3991 31.0901 14.4891 30.2501 14.5791 29.2001C14.6991 28.1501 14.8041 26.9951 14.8941 25.7351C15.0141 24.4751 15.1191 23.1851 15.2091 21.8651C15.2991 20.5151 15.3891 19.2551 15.4791 18.0851C15.5691 16.8851 15.6441 15.8351 15.7041 14.9351C15.7641 14.0351 15.8091 13.3901 15.8391 13.0001C15.8391 12.4301 15.5991 12.4301 15.1191 13.0001C14.2491 13.9901 13.2141 15.2351 12.0141 16.7351C10.8441 18.2351 9.65906 19.7951 8.45906 21.4151C7.25906 23.0351 6.11906 24.6251 5.03906 26.1851C3.98906 27.7451 3.14906 29.0951 2.51906 30.2351C1.97906 31.2251 1.64906 31.9751 1.52906 32.4851C1.43906 32.9951 1.40906 33.4151 1.43906 33.7451C1.46906 34.0751 1.43906 34.2101 1.34906 34.1501C1.25906 34.1201 1.16906 34.0151 1.07906 33.8351C0.989062 33.6551 0.914063 33.3851 0.854063 33.0251C0.794063 32.6651 0.689063 32.1701 0.539062 31.5401Z" fill="white"/>
<path d="M51.7379 24.8351C51.0479 25.6751 50.2829 26.5301 49.4429 27.4001C48.6329 28.2401 47.8079 29.0051 46.9679 29.6951C46.1279 30.3851 45.2879 30.9401 44.4479 31.3601C43.6379 31.7801 42.8879 31.9901 42.1979 31.9901C41.5979 31.9901 41.1779 31.8401 40.9379 31.5401C40.6979 31.2401 40.5779 30.8651 40.5779 30.4151C40.5779 29.9951 40.6979 29.4401 40.9379 28.7501C41.2079 28.0301 41.5979 27.2651 42.1079 26.4551C41.7179 26.9651 41.2679 27.5051 40.7579 28.0751C40.2479 28.6451 39.7229 29.1701 39.1829 29.6501C38.6429 30.1001 38.1029 30.4901 37.5629 30.8201C37.0229 31.1201 36.5429 31.2701 36.1229 31.2701C35.4929 31.2701 35.1779 30.9551 35.1779 30.3251C35.1779 29.6351 35.4479 28.7651 35.9879 27.7151C36.5279 26.6651 37.2479 25.6601 38.1479 24.7001C39.0779 23.7101 40.1279 22.8701 41.2979 22.1801C42.4679 21.4601 43.6829 21.1001 44.9429 21.1001C45.0929 20.8001 45.2279 20.5901 45.3479 20.4701C45.4679 20.3501 45.5879 20.2601 45.7079 20.2001L46.9679 19.8401L47.0579 19.8851C46.9079 20.0351 46.7579 20.2301 46.6079 20.4701C46.4879 20.6801 46.3529 20.9051 46.2029 21.1451C46.3529 21.1451 46.5779 21.1601 46.8779 21.1901C47.1779 21.2201 47.4029 21.2501 47.5529 21.2801C47.7029 21.3401 47.7779 21.4151 47.7779 21.5051C47.7779 21.5951 47.7329 21.6401 47.6429 21.6401C47.4629 21.5801 47.1929 21.5351 46.8329 21.5051C46.4729 21.4751 46.2029 21.4601 46.0229 21.4601C44.6429 23.8901 43.6229 25.8251 42.9629 27.2651C42.3329 28.6751 42.0179 29.7251 42.0179 30.4151C42.0179 30.6851 42.0779 30.9101 42.1979 31.0901C42.3479 31.2701 42.6329 31.3601 43.0529 31.3601C43.5329 31.3601 44.1029 31.1951 44.7629 30.8651C45.4229 30.5051 46.1279 30.0251 46.8779 29.4251C47.6279 28.7951 48.3929 28.0751 49.1729 27.2651C49.9829 26.4551 50.7479 25.6001 51.4679 24.7001C51.5279 24.6101 51.5879 24.5951 51.6479 24.6551C51.7079 24.6851 51.7379 24.7451 51.7379 24.8351ZM44.7179 21.4151C43.6979 21.4151 42.7229 21.7751 41.7929 22.4951C40.8629 23.2151 40.0379 24.0701 39.3179 25.0601C38.5979 26.0201 38.0129 26.9801 37.5629 27.9401C37.1429 28.9001 36.9329 29.6051 36.9329 30.0551C36.9329 30.2951 37.0229 30.4151 37.2029 30.4151C37.3829 30.4151 37.6529 30.2951 38.0129 30.0551C38.4029 29.8151 38.8379 29.5001 39.3179 29.1101C39.7979 28.6901 40.2779 28.2101 40.7579 27.6701C41.2679 27.1301 41.7329 26.5451 42.1529 25.9151C42.6329 25.1951 43.0979 24.4301 43.5479 23.6201C43.9979 22.8101 44.4029 22.0901 44.7629 21.4601L44.7179 21.4151Z" fill="white"/>
<path d="M58.3489 14.8451C58.3489 15.1451 58.2139 15.4601 57.9439 15.7901C57.7039 16.1201 57.3739 16.2851 56.9539 16.2851C56.8039 16.2851 56.6539 16.2401 56.5039 16.1501C56.3839 16.0301 56.3239 15.8951 56.3239 15.7451C56.3239 15.5351 56.4289 15.2351 56.6389 14.8451C56.8789 14.4251 57.2539 14.2151 57.7639 14.2151C57.8839 14.2151 58.0039 14.2601 58.1239 14.3501C58.2739 14.4401 58.3489 14.6051 58.3489 14.8451ZM64.2439 19.2551C64.2439 19.3751 64.2289 19.5401 64.1989 19.7501C64.1689 19.9301 64.0789 20.1851 63.9289 20.5151C63.8089 20.8151 63.5839 21.2051 63.2539 21.6851C62.9539 22.1651 62.5339 22.7651 61.9939 23.4851C62.0239 23.9651 62.0539 24.3851 62.0839 24.7451C62.1439 25.1051 62.1739 25.5851 62.1739 26.1851C62.1739 26.6651 62.0989 27.2351 61.9489 27.8951C61.8289 28.5551 61.5889 29.1851 61.2289 29.7851C60.8689 30.3551 60.3589 30.8351 59.6989 31.2251C59.0689 31.6451 58.2289 31.8551 57.1789 31.8551C56.4889 31.8551 55.9489 31.6451 55.5589 31.2251C55.1689 30.8051 54.9139 30.3851 54.7939 29.9651C54.1939 30.3251 53.5039 30.6401 52.7239 30.9101C51.9739 31.1801 51.1189 31.3151 50.1589 31.3151C49.7389 31.3151 49.4089 31.2101 49.1689 31.0001C48.9289 30.8201 48.8089 30.5351 48.8089 30.1451C48.8089 29.4251 49.2439 28.3001 50.1139 26.7701C51.0139 25.2401 52.1239 23.4851 53.4439 21.5051C53.5039 21.3851 53.6989 21.2951 54.0289 21.2351C54.3589 21.1451 54.6139 21.1001 54.7939 21.1001C54.9739 21.1001 55.0639 21.1601 55.0639 21.2801C55.0639 21.4001 54.9739 21.6101 54.7939 21.9101C54.6139 22.1801 54.2989 22.6601 53.8489 23.3501C53.4589 23.9501 53.0539 24.5951 52.6339 25.2851C52.2439 25.9451 51.8839 26.5751 51.5539 27.1751C51.2539 27.7751 50.9989 28.3151 50.7889 28.7951C50.6089 29.2451 50.5189 29.5901 50.5189 29.8301C50.5189 30.1001 50.5789 30.3251 50.6989 30.5051C50.8189 30.6851 51.0739 30.7751 51.4639 30.7751C51.9439 30.7751 52.4539 30.7001 52.9939 30.5501C53.5339 30.3701 54.1039 30.0701 54.7039 29.6501C54.6739 29.5001 54.6589 29.2751 54.6589 28.9751C54.6589 28.5251 54.7639 28.0601 54.9739 27.5801C55.3639 26.9801 55.8289 26.3651 56.3689 25.7351C56.9389 25.0751 57.4189 24.5351 57.8089 24.1151C57.8389 24.0851 57.8839 24.0701 57.9439 24.0701C58.0039 24.0701 58.0489 24.0851 58.0789 24.1151C58.1389 24.1151 58.1689 24.1451 58.1689 24.2051C58.1689 24.2651 58.1089 24.3401 57.9889 24.4301C57.2689 25.0601 56.7139 25.7351 56.3239 26.4551C55.9639 27.1451 55.7839 27.9701 55.7839 28.9301C56.0839 28.7201 56.4439 28.4351 56.8639 28.0751C57.3139 27.6851 57.7639 27.2801 58.2139 26.8601C58.6939 26.4401 59.1439 26.0201 59.5639 25.6001C60.0139 25.1801 60.3739 24.8201 60.6439 24.5201V23.9801C60.6439 23.2601 60.7189 22.5701 60.8689 21.9101C61.0189 21.2201 61.2139 20.6351 61.4539 20.1551C61.7239 19.6451 62.0389 19.2401 62.3989 18.9401C62.7589 18.6401 63.1489 18.4901 63.5689 18.4901C64.0189 18.4901 64.2439 18.7451 64.2439 19.2551ZM63.5239 19.8401C63.5239 19.2701 63.3589 18.9851 63.0289 18.9851C62.7589 18.9851 62.5489 19.1051 62.3989 19.3451C62.2489 19.5551 62.1289 19.8251 62.0389 20.1551C61.9489 20.4551 61.8889 20.7701 61.8589 21.1001C61.8589 21.4001 61.8589 21.6551 61.8589 21.8651C61.8589 22.0451 61.8589 22.2551 61.8589 22.4951C61.8889 22.7351 61.9189 22.9451 61.9489 23.1251C62.5489 22.3451 62.9539 21.7151 63.1639 21.2351C63.4039 20.7551 63.5239 20.2901 63.5239 19.8401ZM60.6889 26.3651C60.6889 26.1251 60.6739 25.9001 60.6439 25.6901C60.6439 25.4501 60.6439 25.2101 60.6439 24.9701C59.9239 25.6901 59.1439 26.4401 58.3039 27.2201C57.4939 28.0001 56.6539 28.7201 55.7839 29.3801C55.9039 30.0701 56.1439 30.5951 56.5039 30.9551C56.8939 31.3151 57.3439 31.4951 57.8539 31.4951C58.2139 31.4951 58.5589 31.4201 58.8889 31.2701C59.2489 31.1201 59.5489 30.8501 59.7889 30.4601C60.0589 30.0701 60.2689 29.5451 60.4189 28.8851C60.5989 28.2251 60.6889 27.3851 60.6889 26.3651Z" fill="white"/>
<path d="M80.4405 23.3501C79.9305 24.0401 79.3005 24.6701 78.5505 25.2401C77.8305 25.7801 77.0055 26.0501 76.0755 26.0501C75.5655 26.0501 75.0555 25.9301 74.5455 25.6901C74.0655 25.4201 73.6755 25.0301 73.3755 24.5201C73.1655 25.0001 72.8955 25.5551 72.5655 26.1851C72.2355 26.7851 71.8455 27.4001 71.3955 28.0301C70.9455 28.6301 70.4355 29.1851 69.8655 29.6951C69.3255 30.2051 68.7405 30.6251 68.1105 30.9551C67.5705 31.1951 67.1205 31.3151 66.7605 31.3151C65.6805 31.3151 65.1405 30.8351 65.1405 29.8751C65.1405 29.3351 65.2305 28.7801 65.4105 28.2101C65.6205 27.6401 65.8755 27.0851 66.1755 26.5451C66.4755 26.0051 66.7905 25.4951 67.1205 25.0151C67.4805 24.5351 67.8105 24.1451 68.1105 23.8451C68.7405 23.1551 69.4605 22.5701 70.2705 22.0901C71.0805 21.6101 71.9505 21.3251 72.8805 21.2351C72.9405 20.9951 73.0305 20.7251 73.1505 20.4251C73.2705 20.0951 73.4805 19.9001 73.7805 19.8401C73.9305 19.8101 74.0805 19.7801 74.2305 19.7501C74.3805 19.7201 74.5155 19.6751 74.6355 19.6151C74.7255 19.5551 74.8155 19.5551 74.9055 19.6151C74.9955 19.6451 75.0105 19.7201 74.9505 19.8401C74.7405 20.1701 74.5755 20.5901 74.4555 21.1001C74.3655 21.6101 74.3205 22.1651 74.3205 22.7651C74.3205 23.6051 74.4705 24.2951 74.7705 24.8351C75.1005 25.3751 75.6555 25.6451 76.4355 25.6451C77.2155 25.6451 77.9205 25.3901 78.5505 24.8801C79.1805 24.3701 79.7055 23.8151 80.1255 23.2151C80.1855 23.0651 80.2755 23.0201 80.3955 23.0801C80.5455 23.1401 80.5605 23.2301 80.4405 23.3501ZM73.0155 23.6651C72.9555 23.3951 72.9105 23.0801 72.8805 22.7201C72.8505 22.3601 72.8355 22.0151 72.8355 21.6851C72.8355 21.5351 72.7755 21.4601 72.6555 21.4601C72.3255 21.4601 71.9805 21.5801 71.6205 21.8201C71.2605 22.0301 70.9005 22.3301 70.5405 22.7201C70.1805 23.0801 69.8205 23.5001 69.4605 23.9801C69.1005 24.4601 68.7705 24.9551 68.4705 25.4651C68.0805 26.1251 67.7205 26.8451 67.3905 27.6251C67.0905 28.3751 66.9555 29.0951 66.9855 29.7851C66.9855 29.9951 67.0155 30.1901 67.0755 30.3701C67.1655 30.5501 67.3455 30.6401 67.6155 30.6401C68.1255 30.6401 68.6805 30.3551 69.2805 29.7851C69.8805 29.2151 70.4505 28.5551 70.9905 27.8051C71.5305 27.0251 71.9805 26.2451 72.3405 25.4651C72.7305 24.6851 72.9555 24.0851 73.0155 23.6651Z" fill="white"/>
<path d="M91.1844 25.1951C90.6444 25.9451 90.0144 26.7101 89.2944 27.4901C88.6044 28.2401 87.8544 28.9151 87.0444 29.5151C86.2644 30.1151 85.4544 30.6101 84.6144 31.0001C83.8044 31.3901 83.0094 31.5851 82.2294 31.5851C81.8694 31.5851 81.5394 31.5251 81.2394 31.4051C80.9394 31.3151 80.7894 31.0601 80.7894 30.6401C80.7894 30.2201 80.9394 29.6951 81.2394 29.0651C81.5394 28.4051 81.8844 27.7151 82.2744 26.9951C82.6944 26.2751 83.1144 25.5401 83.5344 24.7901C83.9844 24.0401 84.3444 23.3501 84.6144 22.7201C84.6744 22.5701 84.6744 22.4501 84.6144 22.3601C84.5844 22.2401 84.4944 22.2251 84.3444 22.3151C84.0144 22.5251 83.6244 22.8101 83.1744 23.1701C82.7244 23.5301 82.2594 23.9201 81.7794 24.3401C81.3294 24.7301 80.8794 25.1351 80.4294 25.5551C80.0094 25.9751 79.6644 26.3501 79.3944 26.6801C78.9144 27.4301 78.4944 28.1201 78.1344 28.7501C77.8044 29.3801 77.3844 30.0851 76.8744 30.8651C76.7544 31.0451 76.6644 31.1351 76.6044 31.1351C76.4544 31.1351 76.3194 30.9701 76.1994 30.6401C76.1094 30.3101 76.0644 30.1001 76.0644 30.0101C76.0644 29.7401 76.2444 29.3801 76.6044 28.9301C76.9944 28.4501 77.4144 27.9251 77.8644 27.3551C78.3444 26.3951 78.8394 25.3901 79.3494 24.3401C79.8594 23.2601 80.2944 22.3001 80.6544 21.4601C80.7444 21.3101 80.8794 21.2351 81.0594 21.2351C81.2394 21.2351 81.4044 21.3101 81.5544 21.4601C81.7044 21.6101 81.7794 21.7751 81.7794 21.9551C81.7794 22.0751 81.5544 22.4951 81.1044 23.2151C80.6844 23.9051 80.2644 24.7151 79.8444 25.6451C80.4144 25.1351 81.0294 24.5951 81.6894 24.0251C82.3794 23.4551 83.0244 22.9301 83.6244 22.4501C84.2544 21.9701 84.7944 21.5801 85.2444 21.2801C85.7244 20.9501 86.0544 20.7851 86.2344 20.7851C86.3544 20.7851 86.4594 20.8601 86.5494 21.0101C86.6694 21.1301 86.7294 21.2501 86.7294 21.3701C86.7294 21.4901 86.6544 21.6701 86.5044 21.9101C86.1744 22.3901 85.7694 23.0051 85.2894 23.7551C84.8094 24.5051 84.3444 25.2851 83.8944 26.0951C83.4744 26.8751 83.1144 27.6251 82.8144 28.3451C82.5144 29.0651 82.3644 29.6351 82.3644 30.0551C82.3644 30.4151 82.4394 30.6701 82.5894 30.8201C82.7394 30.9401 82.9794 31.0001 83.3094 31.0001C83.8194 31.0001 84.4194 30.8051 85.1094 30.4151C85.7994 30.0251 86.5044 29.5451 87.2244 28.9751C87.9744 28.3751 88.6794 27.7151 89.3394 26.9951C89.9994 26.2751 90.5394 25.5851 90.9594 24.9251C91.0194 24.8351 91.1094 24.8201 91.2294 24.8801C91.3494 24.9101 91.3344 25.0151 91.1844 25.1951Z" fill="white"/>
<path d="M126.889 1.07508C126.889 1.25508 126.799 1.43508 126.619 1.61508C126.439 1.79508 126.319 2.05008 126.259 2.38008C126.199 2.59008 126.094 2.69508 125.944 2.69508C125.854 2.69508 125.764 2.68008 125.674 2.65008C125.584 2.59008 125.464 2.53008 125.314 2.47008C125.194 2.41008 125.029 2.36508 124.819 2.33508C124.639 2.27508 124.369 2.24508 124.009 2.24508C123.499 2.24508 122.989 2.32008 122.479 2.47008C121.969 2.59008 121.504 2.78508 121.084 3.05508C120.244 3.59508 119.329 4.36008 118.339 5.35008C117.379 6.34008 116.494 7.42008 115.684 8.59008C113.674 11.4701 111.904 14.1701 110.374 16.6901C108.874 19.1801 107.614 21.4151 106.594 23.3951C105.574 25.3751 104.809 27.0701 104.299 28.4801C103.789 29.8601 103.534 30.8801 103.534 31.5401C103.534 32.0501 103.639 32.4701 103.849 32.8001C104.089 33.1301 104.464 33.2951 104.974 33.2951C105.784 33.2951 106.549 33.0401 107.269 32.5301C108.019 32.0201 108.724 31.3901 109.384 30.6401C110.044 29.8601 110.644 29.0051 111.184 28.0751C111.724 27.1451 112.189 26.2751 112.579 25.4651C112.639 25.3451 112.729 25.3001 112.849 25.3301C112.999 25.3601 112.999 25.4801 112.849 25.6901C112.309 26.7701 111.724 27.8051 111.094 28.7951C110.494 29.7551 109.849 30.5951 109.159 31.3151C108.499 32.0651 107.794 32.6501 107.044 33.0701C106.324 33.4901 105.604 33.7001 104.884 33.7001C104.074 33.7001 103.474 33.4751 103.084 33.0251C102.694 32.6051 102.499 32.0501 102.499 31.3601C102.499 30.6401 102.634 29.8751 102.904 29.0651C103.204 28.2251 103.654 27.2051 104.254 26.0051C103.414 27.0251 102.679 27.8801 102.049 28.5701C101.419 29.2601 100.864 29.8001 100.384 30.1901C99.9043 30.5801 99.4843 30.8501 99.1243 31.0001C98.7943 31.1801 98.4943 31.2701 98.2243 31.2701C97.8043 31.2701 97.5193 31.1651 97.3693 30.9551C97.2193 30.7151 97.1443 30.4151 97.1443 30.0551C97.1443 29.7851 97.2193 29.4401 97.3693 29.0201C97.5193 28.5701 97.7293 28.1351 97.9993 27.7151C99.1093 25.9151 100.339 24.4451 101.689 23.3051C103.069 22.1651 104.764 21.4151 106.774 21.0551C108.214 18.5351 109.594 16.2701 110.914 14.2601C112.234 12.2501 113.674 10.2851 115.234 8.36508C116.524 6.74508 117.799 5.32008 119.059 4.09008C120.349 2.86008 121.669 1.93008 123.019 1.30008C124.039 0.820078 124.924 0.580078 125.674 0.580078C126.034 0.580078 126.319 0.625077 126.529 0.715076C126.769 0.805077 126.889 0.925076 126.889 1.07508ZM106.414 21.7301C105.274 21.7601 104.389 21.9851 103.759 22.4051C103.159 22.7951 102.619 23.2901 102.139 23.8901C100.999 25.3001 100.189 26.5151 99.7093 27.5351C99.2293 28.5251 98.9893 29.2601 98.9893 29.7401C98.9893 29.8901 99.0493 29.9951 99.1693 30.0551C99.2893 30.1151 99.3793 30.1451 99.4393 30.1451C99.6493 30.1451 100.024 29.9201 100.564 29.4701C101.134 29.0201 101.749 28.4201 102.409 27.6701C103.099 26.8901 103.804 25.9901 104.524 24.9701C105.244 23.9501 105.874 22.8701 106.414 21.7301Z" fill="white"/>
<path d="M131.472 27.4451C130.512 28.5851 129.492 29.4101 128.412 29.9201C127.362 30.4001 126.477 30.7301 125.757 30.9101C124.707 31.1501 123.657 31.3151 122.607 31.4051C121.557 31.4951 120.567 31.5401 119.637 31.5401C118.767 31.5401 118.332 31.4351 118.332 31.2251C118.332 31.1651 118.452 31.0301 118.692 30.8201C118.932 30.6101 119.202 30.4751 119.502 30.4151C119.802 30.4151 120.132 30.4301 120.492 30.4601C120.852 30.4901 121.227 30.5051 121.617 30.5051C121.887 30.5051 122.172 30.4601 122.472 30.3701C122.802 30.2801 123.102 30.1151 123.372 29.8751C123.642 29.6351 123.852 29.3051 124.002 28.8851C124.182 28.4651 124.272 27.9251 124.272 27.2651C124.272 26.9351 124.257 26.5901 124.227 26.2301C124.197 25.8701 124.122 25.5251 124.002 25.1951C122.262 27.1751 120.417 28.6901 118.467 29.7401C116.517 30.7601 114.732 31.2701 113.112 31.2701C112.872 31.2701 112.602 31.2551 112.302 31.2251C112.032 31.1951 111.762 31.1201 111.492 31.0001C111.252 30.8501 111.042 30.6551 110.862 30.4151C110.712 30.1751 110.637 29.8451 110.637 29.4251C110.637 28.9151 110.847 28.1951 111.267 27.2651C111.687 26.3351 112.257 25.4201 112.977 24.5201C113.697 23.5901 114.522 22.7951 115.452 22.1351C116.382 21.4451 117.357 21.1001 118.377 21.1001C118.677 21.1001 118.887 21.2051 119.007 21.4151C119.127 21.5951 119.187 21.8201 119.187 22.0901C119.187 22.2701 119.127 22.5101 119.007 22.8101C118.917 23.1101 118.737 23.4101 118.467 23.7101C118.197 23.9801 117.852 24.2351 117.432 24.4751C117.012 24.6851 116.487 24.7901 115.857 24.7901C115.257 24.7901 114.807 24.6251 114.507 24.2951C114.447 24.2351 114.372 24.2501 114.282 24.3401C114.162 24.4601 113.997 24.6851 113.787 25.0151C113.577 25.3451 113.367 25.7351 113.157 26.1851C112.947 26.6351 112.767 27.1151 112.617 27.6251C112.467 28.1051 112.392 28.6001 112.392 29.1101C112.392 30.1901 112.887 30.7301 113.877 30.7301C114.207 30.7301 114.687 30.6851 115.317 30.5951C115.977 30.4751 116.727 30.2201 117.567 29.8301C118.437 29.4101 119.397 28.8101 120.447 28.0301C121.497 27.2501 122.577 26.2001 123.687 24.8801C123.837 24.6701 123.912 24.5051 123.912 24.3851C123.912 23.9051 124.062 23.4401 124.362 22.9901C124.662 22.5401 125.022 22.1351 125.442 21.7751C125.892 21.4151 126.342 21.1301 126.792 20.9201C127.272 20.7101 127.692 20.6051 128.052 20.6051C128.232 20.6051 128.397 20.6651 128.547 20.7851C128.727 20.9051 128.817 21.0851 128.817 21.3251C128.817 21.5051 128.802 21.6401 128.772 21.7301C128.682 21.8201 128.577 21.9251 128.457 22.0451C128.337 22.1651 128.232 22.2251 128.142 22.2251C128.082 22.2251 127.992 22.0901 127.872 21.8201C127.752 21.5501 127.527 21.4151 127.197 21.4151C126.597 21.4151 126.147 21.5951 125.847 21.9551C125.547 22.3151 125.397 22.7951 125.397 23.3951C125.397 23.8151 125.457 24.3551 125.577 25.0151C125.697 25.6751 125.757 26.3051 125.757 26.9051C125.757 27.5051 125.547 28.1201 125.127 28.7501C124.707 29.3801 124.197 29.8301 123.597 30.1001C123.357 30.2201 123.252 30.3251 123.282 30.4151C123.312 30.4751 123.627 30.5051 124.227 30.5051C125.397 30.5051 126.612 30.2351 127.872 29.6951C129.132 29.1551 130.272 28.3301 131.292 27.2201C131.442 27.0701 131.547 27.0401 131.607 27.1301C131.667 27.1901 131.622 27.2951 131.472 27.4451ZM117.522 22.4951C117.522 22.3751 117.492 22.2251 117.432 22.0451C117.402 21.8651 117.252 21.7751 116.982 21.7751C116.802 21.7751 116.592 21.8501 116.352 22.0001C116.112 22.1501 115.872 22.3451 115.632 22.5851C115.392 22.7951 115.182 23.0201 115.002 23.2601C114.852 23.5001 114.747 23.7101 114.687 23.8901C114.687 24.1901 114.927 24.3401 115.407 24.3401C115.827 24.3401 116.277 24.1901 116.757 23.8901C117.267 23.5601 117.522 23.0951 117.522 22.4951Z" fill="white"/>
<path d="M153.507 10.9751C154.857 10.9751 156.042 11.0201 157.062 11.1101C158.112 11.1701 158.967 11.3351 159.627 11.6051C160.317 11.8751 160.827 12.2501 161.157 12.7301C161.517 13.2101 161.697 13.8551 161.697 14.6651C161.697 15.0851 161.592 15.5801 161.382 16.1501C161.172 16.7201 160.812 17.2901 160.302 17.8601C159.822 18.4001 159.177 18.9251 158.367 19.4351C157.557 19.9151 156.567 20.2901 155.397 20.5601C155.337 20.5601 155.307 20.6051 155.307 20.6951C155.307 20.7551 155.337 20.7851 155.397 20.7851C155.817 20.8751 156.282 20.9801 156.792 21.1001C157.302 21.1901 157.782 21.3701 158.232 21.6401C158.682 21.8801 159.057 22.2101 159.357 22.6301C159.687 23.0201 159.852 23.5601 159.852 24.2501C159.852 25.0901 159.627 25.9451 159.177 26.8151C158.727 27.6551 158.082 28.4201 157.242 29.1101C156.432 29.8001 155.427 30.3701 154.227 30.8201C153.057 31.2401 151.722 31.4501 150.222 31.4501C149.352 31.4501 148.422 31.3601 147.432 31.1801C146.442 31.0301 145.527 30.7451 144.687 30.3251C144.477 30.2051 144.282 30.1151 144.102 30.0551C143.922 29.9651 143.772 29.9201 143.652 29.9201C143.412 29.9201 143.037 30.0401 142.527 30.2801C142.017 30.5201 141.552 30.8051 141.132 31.1351L140.862 30.9101C141.252 30.4901 141.507 30.1901 141.627 30.0101C141.777 29.8001 141.897 29.6201 141.987 29.4701C142.467 28.6601 142.962 27.8201 143.472 26.9501C143.982 26.0501 144.462 25.1801 144.912 24.3401C145.392 23.4701 145.842 22.6451 146.262 21.8651C146.712 21.0551 147.117 20.3351 147.477 19.7051C147.747 19.1651 148.062 18.5651 148.422 17.9051C148.812 17.2151 149.187 16.5101 149.547 15.7901C149.937 15.0701 150.297 14.3651 150.627 13.6751C150.987 12.9551 151.302 12.3101 151.572 11.7401C151.602 11.6801 151.617 11.6051 151.617 11.5151C151.617 11.4251 151.527 11.3801 151.347 11.3801C150.927 11.3801 150.462 11.4101 149.952 11.4701C149.442 11.5301 148.947 11.6051 148.467 11.6951C147.987 11.7551 147.537 11.8151 147.117 11.8751C146.697 11.9351 146.367 11.9651 146.127 11.9651C145.647 11.9651 145.407 11.8151 145.407 11.5151C145.407 11.1851 145.497 10.9301 145.677 10.7501C145.737 10.7501 145.782 10.7951 145.812 10.8851C145.872 10.9751 145.992 11.0351 146.172 11.0651C146.382 11.0951 146.862 11.1101 147.612 11.1101C148.572 11.1101 149.472 11.0951 150.312 11.0651C151.182 11.0051 152.247 10.9751 153.507 10.9751ZM159.537 14.2601C159.537 13.6901 159.417 13.2251 159.177 12.8651C158.937 12.4751 158.622 12.1751 158.232 11.9651C157.842 11.7551 157.407 11.6201 156.927 11.5601C156.447 11.4701 155.967 11.4251 155.487 11.4251C155.157 11.4251 154.842 11.4701 154.542 11.5601C154.272 11.6201 154.032 11.7851 153.822 12.0551C153.492 12.4751 153.147 12.9851 152.787 13.5851C152.457 14.1551 152.142 14.6951 151.842 15.2051C150.852 16.9751 149.787 18.9551 148.647 21.1451C147.507 23.3351 146.367 25.5551 145.227 27.8051C145.077 28.1051 144.987 28.3751 144.957 28.6151C144.957 28.7951 145.032 29.0201 145.182 29.2901C145.332 29.5601 145.572 29.8301 145.902 30.1001C146.262 30.3401 146.712 30.5501 147.252 30.7301C147.792 30.9101 148.467 31.0001 149.277 31.0001C150.297 30.9701 151.302 30.7751 152.292 30.4151C153.312 30.0251 154.227 29.5151 155.037 28.8851C155.847 28.2251 156.492 27.4601 156.972 26.5901C157.482 25.6901 157.737 24.7301 157.737 23.7101C157.737 22.8401 157.407 22.1801 156.747 21.7301C156.087 21.2501 155.157 20.9801 153.957 20.9201C153.537 20.9201 153.072 20.9801 152.562 21.1001C152.052 21.1901 151.602 21.2351 151.212 21.2351C151.122 21.2051 151.047 21.1751 150.987 21.1451C150.957 21.0851 150.942 20.9651 150.942 20.7851C150.942 20.6351 150.987 20.5151 151.077 20.4251C151.167 20.3051 151.287 20.2451 151.437 20.2451C151.767 20.2451 152.082 20.2901 152.382 20.3801C152.682 20.4701 152.997 20.5151 153.327 20.5151C153.597 20.5151 153.897 20.5001 154.227 20.4701C154.587 20.4101 154.887 20.3351 155.127 20.2451C155.667 20.0051 156.192 19.7051 156.702 19.3451C157.242 18.9551 157.722 18.5051 158.142 17.9951C158.562 17.4851 158.892 16.9151 159.132 16.2851C159.402 15.6551 159.537 14.9801 159.537 14.2601Z" fill="white"/>
<path d="M177.801 24.8351C177.111 25.6751 176.346 26.5301 175.506 27.4001C174.696 28.2401 173.871 29.0051 173.031 29.6951C172.191 30.3851 171.351 30.9401 170.511 31.3601C169.701 31.7801 168.951 31.9901 168.261 31.9901C167.661 31.9901 167.241 31.8401 167.001 31.5401C166.761 31.2401 166.641 30.8651 166.641 30.4151C166.641 29.9951 166.761 29.4401 167.001 28.7501C167.271 28.0301 167.661 27.2651 168.171 26.4551C167.781 26.9651 167.331 27.5051 166.821 28.0751C166.311 28.6451 165.786 29.1701 165.246 29.6501C164.706 30.1001 164.166 30.4901 163.626 30.8201C163.086 31.1201 162.606 31.2701 162.186 31.2701C161.556 31.2701 161.241 30.9551 161.241 30.3251C161.241 29.6351 161.511 28.7651 162.051 27.7151C162.591 26.6651 163.311 25.6601 164.211 24.7001C165.141 23.7101 166.191 22.8701 167.361 22.1801C168.531 21.4601 169.746 21.1001 171.006 21.1001C171.156 20.8001 171.291 20.5901 171.411 20.4701C171.531 20.3501 171.651 20.2601 171.771 20.2001L173.031 19.8401L173.121 19.8851C172.971 20.0351 172.821 20.2301 172.671 20.4701C172.551 20.6801 172.416 20.9051 172.266 21.1451C172.416 21.1451 172.641 21.1601 172.941 21.1901C173.241 21.2201 173.466 21.2501 173.616 21.2801C173.766 21.3401 173.841 21.4151 173.841 21.5051C173.841 21.5951 173.796 21.6401 173.706 21.6401C173.526 21.5801 173.256 21.5351 172.896 21.5051C172.536 21.4751 172.266 21.4601 172.086 21.4601C170.706 23.8901 169.686 25.8251 169.026 27.2651C168.396 28.6751 168.081 29.7251 168.081 30.4151C168.081 30.6851 168.141 30.9101 168.261 31.0901C168.411 31.2701 168.696 31.3601 169.116 31.3601C169.596 31.3601 170.166 31.1951 170.826 30.8651C171.486 30.5051 172.191 30.0251 172.941 29.4251C173.691 28.7951 174.456 28.0751 175.236 27.2651C176.046 26.4551 176.811 25.6001 177.531 24.7001C177.591 24.6101 177.651 24.5951 177.711 24.6551C177.771 24.6851 177.801 24.7451 177.801 24.8351ZM170.781 21.4151C169.761 21.4151 168.786 21.7751 167.856 22.4951C166.926 23.2151 166.101 24.0701 165.381 25.0601C164.661 26.0201 164.076 26.9801 163.626 27.9401C163.206 28.9001 162.996 29.6051 162.996 30.0551C162.996 30.2951 163.086 30.4151 163.266 30.4151C163.446 30.4151 163.716 30.2951 164.076 30.0551C164.466 29.8151 164.901 29.5001 165.381 29.1101C165.861 28.6901 166.341 28.2101 166.821 27.6701C167.331 27.1301 167.796 26.5451 168.216 25.9151C168.696 25.1951 169.161 24.4301 169.611 23.6201C170.061 22.8101 170.466 22.0901 170.826 21.4601L170.781 21.4151Z" fill="white"/>
<path d="M185.447 21.8201C185.267 22.0301 185.072 22.2851 184.862 22.5851C184.682 22.8851 184.562 23.1101 184.502 23.2601C184.472 23.3501 184.412 23.3951 184.322 23.3951C184.292 23.3951 184.247 23.3501 184.187 23.2601C184.127 23.1701 184.037 23.0801 183.917 22.9901C183.827 22.8701 183.692 22.7651 183.512 22.6751C183.332 22.5851 183.077 22.5401 182.747 22.5401C182.357 22.5401 181.922 22.6751 181.442 22.9451C180.962 23.2151 180.542 23.5151 180.182 23.8451C179.612 24.3251 179.102 24.8501 178.652 25.4201C178.232 25.9901 177.827 26.5901 177.437 27.2201C177.047 27.8201 176.672 28.4501 176.312 29.1101C175.952 29.7401 175.562 30.3851 175.142 31.0451C175.112 31.1351 175.022 31.1801 174.872 31.1801C174.812 31.1801 174.677 31.0901 174.467 30.9101C174.287 30.7301 174.197 30.5951 174.197 30.5051C174.197 30.3251 174.302 30.0551 174.512 29.6951C174.992 28.8551 175.472 28.0151 175.952 27.1751C176.462 26.3051 176.927 25.4951 177.347 24.7451C177.797 23.9951 178.187 23.3501 178.517 22.8101C178.847 22.2401 179.072 21.8201 179.192 21.5501C179.342 21.2801 179.447 21.1451 179.507 21.1451C179.567 21.1451 179.717 21.2201 179.957 21.3701C180.197 21.5201 180.317 21.7301 180.317 22.0001C180.317 22.0901 180.257 22.2401 180.137 22.4501C180.047 22.6601 179.927 22.8851 179.777 23.1251C179.657 23.3351 179.537 23.5451 179.417 23.7551C179.297 23.9651 179.207 24.1151 179.147 24.2051C179.057 24.3551 179.042 24.4301 179.102 24.4301C179.162 24.4301 179.237 24.3851 179.327 24.2951C179.627 23.9951 179.987 23.6651 180.407 23.3051C180.857 22.9451 181.322 22.6151 181.802 22.3151C182.282 21.9851 182.747 21.7151 183.197 21.5051C183.677 21.2951 184.097 21.1901 184.457 21.1901C184.727 21.1901 184.952 21.2651 185.132 21.4151C185.342 21.5351 185.447 21.6701 185.447 21.8201Z" fill="white"/>
<path d="M199.015 23.3501C198.505 24.0401 197.875 24.6701 197.125 25.2401C196.405 25.7801 195.58 26.0501 194.65 26.0501C194.14 26.0501 193.63 25.9301 193.12 25.6901C192.64 25.4201 192.25 25.0301 191.95 24.5201C191.74 25.0001 191.47 25.5551 191.14 26.1851C190.81 26.7851 190.42 27.4001 189.97 28.0301C189.52 28.6301 189.01 29.1851 188.44 29.6951C187.9 30.2051 187.315 30.6251 186.685 30.9551C186.145 31.1951 185.695 31.3151 185.335 31.3151C184.255 31.3151 183.715 30.8351 183.715 29.8751C183.715 29.3351 183.805 28.7801 183.985 28.2101C184.195 27.6401 184.45 27.0851 184.75 26.5451C185.05 26.0051 185.365 25.4951 185.695 25.0151C186.055 24.5351 186.385 24.1451 186.685 23.8451C187.315 23.1551 188.035 22.5701 188.845 22.0901C189.655 21.6101 190.525 21.3251 191.455 21.2351C191.515 20.9951 191.605 20.7251 191.725 20.4251C191.845 20.0951 192.055 19.9001 192.355 19.8401C192.505 19.8101 192.655 19.7801 192.805 19.7501C192.955 19.7201 193.09 19.6751 193.21 19.6151C193.3 19.5551 193.39 19.5551 193.48 19.6151C193.57 19.6451 193.585 19.7201 193.525 19.8401C193.315 20.1701 193.15 20.5901 193.03 21.1001C192.94 21.6101 192.895 22.1651 192.895 22.7651C192.895 23.6051 193.045 24.2951 193.345 24.8351C193.675 25.3751 194.23 25.6451 195.01 25.6451C195.79 25.6451 196.495 25.3901 197.125 24.8801C197.755 24.3701 198.28 23.8151 198.7 23.2151C198.76 23.0651 198.85 23.0201 198.97 23.0801C199.12 23.1401 199.135 23.2301 199.015 23.3501ZM191.59 23.6651C191.53 23.3951 191.485 23.0801 191.455 22.7201C191.425 22.3601 191.41 22.0151 191.41 21.6851C191.41 21.5351 191.35 21.4601 191.23 21.4601C190.9 21.4601 190.555 21.5801 190.195 21.8201C189.835 22.0301 189.475 22.3301 189.115 22.7201C188.755 23.0801 188.395 23.5001 188.035 23.9801C187.675 24.4601 187.345 24.9551 187.045 25.4651C186.655 26.1251 186.295 26.8451 185.965 27.6251C185.665 28.3751 185.53 29.0951 185.56 29.7851C185.56 29.9951 185.59 30.1901 185.65 30.3701C185.74 30.5501 185.92 30.6401 186.19 30.6401C186.7 30.6401 187.255 30.3551 187.855 29.7851C188.455 29.2151 189.025 28.5551 189.565 27.8051C190.105 27.0251 190.555 26.2451 190.915 25.4651C191.305 24.6851 191.53 24.0851 191.59 23.6651Z" fill="white"/>
<path d="M209.759 25.1951C209.219 25.9451 208.589 26.7101 207.869 27.4901C207.179 28.2401 206.429 28.9151 205.619 29.5151C204.839 30.1151 204.029 30.6101 203.189 31.0001C202.379 31.3901 201.584 31.5851 200.804 31.5851C200.444 31.5851 200.114 31.5251 199.814 31.4051C199.514 31.3151 199.364 31.0601 199.364 30.6401C199.364 30.2201 199.514 29.6951 199.814 29.0651C200.114 28.4051 200.459 27.7151 200.849 26.9951C201.269 26.2751 201.689 25.5401 202.109 24.7901C202.559 24.0401 202.919 23.3501 203.189 22.7201C203.249 22.5701 203.249 22.4501 203.189 22.3601C203.159 22.2401 203.069 22.2251 202.919 22.3151C202.589 22.5251 202.199 22.8101 201.749 23.1701C201.299 23.5301 200.834 23.9201 200.354 24.3401C199.904 24.7301 199.454 25.1351 199.004 25.5551C198.584 25.9751 198.239 26.3501 197.969 26.6801C197.489 27.4301 197.069 28.1201 196.709 28.7501C196.379 29.3801 195.959 30.0851 195.449 30.8651C195.329 31.0451 195.239 31.1351 195.179 31.1351C195.029 31.1351 194.894 30.9701 194.774 30.6401C194.684 30.3101 194.639 30.1001 194.639 30.0101C194.639 29.7401 194.819 29.3801 195.179 28.9301C195.569 28.4501 195.989 27.9251 196.439 27.3551C196.919 26.3951 197.414 25.3901 197.924 24.3401C198.434 23.2601 198.869 22.3001 199.229 21.4601C199.319 21.3101 199.454 21.2351 199.634 21.2351C199.814 21.2351 199.979 21.3101 200.129 21.4601C200.279 21.6101 200.354 21.7751 200.354 21.9551C200.354 22.0751 200.129 22.4951 199.679 23.2151C199.259 23.9051 198.839 24.7151 198.419 25.6451C198.989 25.1351 199.604 24.5951 200.264 24.0251C200.954 23.4551 201.599 22.9301 202.199 22.4501C202.829 21.9701 203.369 21.5801 203.819 21.2801C204.299 20.9501 204.629 20.7851 204.809 20.7851C204.929 20.7851 205.034 20.8601 205.124 21.0101C205.244 21.1301 205.304 21.2501 205.304 21.3701C205.304 21.4901 205.229 21.6701 205.079 21.9101C204.749 22.3901 204.344 23.0051 203.864 23.7551C203.384 24.5051 202.919 25.2851 202.469 26.0951C202.049 26.8751 201.689 27.6251 201.389 28.3451C201.089 29.0651 200.939 29.6351 200.939 30.0551C200.939 30.4151 201.014 30.6701 201.164 30.8201C201.314 30.9401 201.554 31.0001 201.884 31.0001C202.394 31.0001 202.994 30.8051 203.684 30.4151C204.374 30.0251 205.079 29.5451 205.799 28.9751C206.549 28.3751 207.254 27.7151 207.914 26.9951C208.574 26.2751 209.114 25.5851 209.534 24.9251C209.594 24.8351 209.684 24.8201 209.804 24.8801C209.924 24.9101 209.909 25.0151 209.759 25.1951Z" fill="white"/>
<path d="M214.155 22.7651C214.065 22.9151 213.99 22.9301 213.93 22.8101C213.75 22.4201 213.375 22.2251 212.805 22.2251C212.385 22.2251 211.965 22.3451 211.545 22.5851C211.125 22.8251 210.915 23.1851 210.915 23.6651C210.915 23.9051 210.99 24.1451 211.14 24.3851C211.29 24.6251 211.5 24.9401 211.77 25.3301C212.01 25.6901 212.235 26.0501 212.445 26.4101C212.655 26.7701 212.76 27.1451 212.76 27.5351C212.76 28.3151 212.58 28.9601 212.22 29.4701C211.86 29.9501 211.425 30.3401 210.915 30.6401C210.435 30.9401 209.94 31.1351 209.43 31.2251C208.92 31.3451 208.515 31.4051 208.215 31.4051C206.385 31.4051 205.38 30.7901 205.2 29.5601C205.35 29.4701 205.515 29.3651 205.695 29.2451C205.905 29.0951 206.055 28.9601 206.145 28.8401C206.205 28.8401 206.25 28.9001 206.28 29.0201C206.43 29.5601 206.715 30.0251 207.135 30.4151C207.555 30.8051 208.05 31.0001 208.62 31.0001C208.86 31.0001 209.145 30.9851 209.475 30.9551C209.805 30.8951 210.105 30.7901 210.375 30.6401C210.675 30.4601 210.93 30.2201 211.14 29.9201C211.35 29.6201 211.455 29.2151 211.455 28.7051C211.455 28.3151 211.38 27.9551 211.23 27.6251C211.08 27.2951 210.915 26.9951 210.735 26.7251C210.555 26.4251 210.375 26.1251 210.195 25.8251C210.015 25.5251 209.925 25.1951 209.925 24.8351C209.925 24.4751 210.045 24.0851 210.285 23.6651C210.555 23.2451 210.885 22.8701 211.275 22.5401C211.665 22.1801 212.085 21.8801 212.535 21.6401C213.015 21.4001 213.48 21.2801 213.93 21.2801C214.41 21.2801 214.65 21.4301 214.65 21.7301C214.56 21.8801 214.47 22.0601 214.38 22.2701C214.29 22.4501 214.215 22.6151 214.155 22.7651Z" fill="white"/>
</svg>
