<svg width="28" height="42" viewBox="0 0 28 42" fill="none" xmlns="http://www.w3.org/2000/svg">
<path fill-rule="evenodd" clip-rule="evenodd" d="M0 13.7548C0 6.17029 6.22454 0 13.8756 0C21.5266 0 27.7511 6.17029 27.7511 13.7548C27.7511 21.0438 15.1412 40.7673 14.6044 41.6033C14.4459 41.8503 14.171 42 13.8756 42C13.5803 42 13.3054 41.8503 13.1468 41.6033C12.61 40.7673 0 21.0439 0 13.7548ZM8.12506 29.7033C10.4184 33.9034 12.7344 37.694 13.8756 39.5251C15.0168 37.694 17.3328 33.9033 19.6261 29.7033C23.8108 22.0389 26.0229 16.524 26.0229 13.7547C26.0229 7.11554 20.5737 1.71423 13.8756 1.71423C7.17756 1.71423 1.72822 7.11554 1.7283 13.7547C1.7283 16.524 3.94025 22.0389 8.12506 29.7033Z" fill="#D6C7A7"/>
<path fill-rule="evenodd" clip-rule="evenodd" d="M7.3125 12.8543C7.3125 9.36185 10.257 6.52051 13.8762 6.52051C17.4954 6.52051 20.4399 9.36185 20.4399 12.8543C20.4399 16.3466 17.4954 19.1878 13.8762 19.1878C10.257 19.1878 7.3125 16.3466 7.3125 12.8543ZM9.04073 12.8542C9.04073 15.4013 11.21 17.4735 13.8762 17.4735C16.5425 17.4735 18.7117 15.4013 18.7117 12.8542C18.7117 10.3071 16.5424 8.23474 13.8762 8.23474C11.21 8.23474 9.04073 10.3071 9.04073 12.8542Z" fill="#D6C7A7"/>
</svg>
