<svg width="28" height="42" viewBox="0 0 28 42" fill="none" xmlns="http://www.w3.org/2000/svg">
<path fill-rule="evenodd" clip-rule="evenodd" d="M27.7947 9.97042C27.7128 9.72082 27.4952 9.53895 27.2333 9.50119L18.4618 8.23703L14.5418 0.353302C14.4118 0.134378 14.1747 0 13.9185 0C13.6623 0 13.4253 0.134378 13.2952 0.353302L9.36964 8.23703L0.59816 9.50119C0.335207 9.53812 0.116392 9.72033 0.0341864 9.97082C-0.0480196 10.2213 0.0207285 10.4964 0.211378 10.6798L6.55851 16.8163L5.06146 25.4798C5.0172 25.7386 5.12484 26 5.33917 26.154C5.5535 26.3081 5.83738 26.3281 6.07155 26.2057L10.7776 23.7506L13.227 40.778C13.2759 41.1181 13.5694 41.3707 13.9157 41.3707C14.262 41.3707 14.5556 41.1181 14.6044 40.778L17.0538 23.7526L21.7599 26.2057C21.8601 26.2573 21.9712 26.2842 22.0841 26.2844C22.2892 26.2845 22.4839 26.1948 22.6161 26.0392C22.7483 25.8837 22.8046 25.6783 22.77 25.4777L21.2716 16.8149L27.6201 10.6798C27.81 10.4957 27.8777 10.2206 27.7947 9.97042ZM13.9157 35.7973L12.0862 23.0757L13.9157 22.1179L15.7453 23.0757L13.9157 35.7973ZM19.8378 16.6921C19.7987 16.4681 19.8734 16.2395 20.0374 16.0807L25.6381 10.666L17.9004 9.55016C17.6738 9.51752 17.4779 9.37637 17.3765 9.17271L13.9157 2.21777L10.4548 9.17271C10.3535 9.37637 10.1576 9.51752 9.93098 9.55016L2.19324 10.666L7.79254 16.0807C7.95654 16.2395 8.03121 16.4681 7.99219 16.6921L6.67045 24.3364L13.5908 20.7275C13.7937 20.6215 14.0362 20.6215 14.2392 20.7275L21.1595 24.3364L19.8378 16.6921Z" fill="#D6C7A7"/>
<path fill-rule="evenodd" clip-rule="evenodd" d="M9.74219 14.4591C9.74219 12.1725 11.6109 10.3188 13.9161 10.3188C16.2202 10.3215 18.0873 12.1736 18.09 14.4591C18.09 16.7457 16.2213 18.5994 13.9161 18.5994C11.6109 18.5994 9.74219 16.7457 9.74219 14.4591ZM11.1334 14.4591C11.1334 15.9835 12.3792 17.2193 13.916 17.2193C15.4528 17.2193 16.6986 15.9835 16.6986 14.4591C16.6986 12.9347 15.4528 11.699 13.916 11.699C12.3792 11.699 11.1334 12.9347 11.1334 14.4591Z" fill="#D6C7A7"/>
</svg>
